<svg viewBox="0 0 900 900" xmlns="http://www.w3.org/2000/svg">
<defs>
  <radialGradient id="sphere" cx="37%" cy="34%" r="80%">
    <stop offset="0%" stop-color="#57d69b"/>
    <stop offset="26%" stop-color="#2b9a70"/>
    <stop offset="55%" stop-color="#12563f"/>
    <stop offset="82%" stop-color="#083324"/>
    <stop offset="100%" stop-color="#03110b"/>
  </radialGradient>
  <radialGradient id="halo" cx="50%" cy="50%" r="50%">
    <stop offset="58%" stop-color="#4ade80" stop-opacity="0"/>
    <stop offset="74%" stop-color="#4ade80" stop-opacity="0.30"/>
    <stop offset="80%" stop-color="#7fffd4" stop-opacity="0.16"/>
    <stop offset="100%" stop-color="#4ade80" stop-opacity="0"/>
  </radialGradient>
  <clipPath id="clip"><circle cx="450" cy="440" r="280"/></clipPath>
  <filter id="soft" x="-30%" y="-30%" width="160%" height="160%">
    <feGaussianBlur stdDeviation="14"/>
  </filter>
  <filter id="rim" x="-30%" y="-30%" width="160%" height="160%">
    <feGaussianBlur stdDeviation="4"/>
  </filter>
</defs>

<rect width="900" height="900" fill="#04070a"/>

<g fill="#cfe6ff">
  <circle cx="110" cy="150" r="1.8" opacity="0.5"/><circle cx="780" cy="120" r="2.2" opacity="0.5"/>
  <circle cx="835" cy="470" r="1.6" opacity="0.4"/><circle cx="150" cy="700" r="2" opacity="0.45"/>
  <circle cx="720" cy="770" r="1.8" opacity="0.4"/><circle cx="250" cy="120" r="1.4" opacity="0.35"/>
  <circle cx="600" cy="820" r="1.6" opacity="0.35"/><circle cx="70" cy="420" r="1.6" opacity="0.4"/>
</g>

<circle cx="450" cy="440" r="370" fill="url(#halo)"/>
<circle cx="450" cy="440" r="280" fill="url(#sphere)"/>

<g clip-path="url(#clip)">
  <g filter="url(#soft)" opacity="0.55">
    <ellipse cx="360" cy="330" rx="95" ry="60" fill="#7fffd4"/>
    <ellipse cx="470" cy="470" rx="120" ry="80" fill="#3fbf88"/>
    <ellipse cx="560" cy="330" rx="70" ry="45" fill="#5fd89a"/>
    <ellipse cx="380" cy="560" rx="90" ry="55" fill="#2b9a70"/>
  </g>
  <g stroke="#0a3a2a" stroke-width="1.2" fill="none" opacity="0.35">
    <ellipse cx="450" cy="440" rx="278" ry="70"/>
    <ellipse cx="450" cy="440" rx="278" ry="150"/>
    <ellipse cx="450" cy="440" rx="278" ry="230"/>
    <line x1="450" y1="160" x2="450" y2="720"/>
  </g>
  <circle cx="590" cy="560" r="300" fill="#03110b" opacity="0.45" filter="url(#soft)"/>
</g>

<path d="M 250 300 A 280 280 0 0 1 640 250" fill="none" stroke="#9dffdf" stroke-width="3" opacity="0.7" filter="url(#rim)"/>
<circle cx="450" cy="440" r="281" fill="none" stroke="#4ade80" stroke-width="1.4" opacity="0.35"/>

<g transform="rotate(-19 450 440)">
  <ellipse cx="450" cy="440" rx="388" ry="120" fill="none" stroke="#7fffd4" stroke-width="1.4" opacity="0.45"/>
  <circle cx="178" cy="357" r="6" fill="#22d3ee" opacity="0.55"/>
  <circle cx="722" cy="357" r="6" fill="#22d3ee" opacity="0.55"/>
  <circle cx="838" cy="440" r="8" fill="#7fffd4"/>
  <circle cx="838" cy="440" r="18" fill="none" stroke="#7fffd4" stroke-width="1.2" opacity="0.5"/>
  <circle cx="450" cy="560" r="7" fill="#4ade80"/>
  <circle cx="205" cy="520" r="6" fill="#4ade80"/>
  <circle cx="640" cy="325" r="10" fill="#dfeee6"/>
  <circle cx="640" cy="325" r="10" fill="#0a1512" opacity="0.25"/>
</g>
</svg>
